<svg id="art" xmlns="http://www.w3.org/2000/svg" viewBox="0 0 1280 300"><defs><style>.cls-1{fill:#276ef1;}.cls-2{fill:#c78982;}.cls-3{fill:#99644d;}.cls-4{fill:#fff;}.cls-5{fill:#ffafa1;}.cls-6{fill:#7c4f40;}</style></defs><title>whyDriveWithUs_desktop</title><path class="cls-1" d="M1078.52,300H998.07L815.72,288.14,633.46,300H569l-142-8-133.19,8H201.48a38.87,38.87,0,0,1-37.13-50.33L180,199.06C201.87,128,269,79.38,345,79.38H935C1011,79.38,1078.12,128,1100,199.06l15.61,50.61A38.87,38.87,0,0,1,1078.52,300Z"/><path class="cls-2" d="M456.52,120.84V179H406.31V121.75C414.72,129.49,456.52,120.84,456.52,120.84Z"/><path class="cls-3" d="M406.31,129.88V109.81h50.21v43c-8.16,0-13.83,0-20.53-2.33C425.16,146.78,414.15,139,406.31,129.88Z"/><path class="cls-2" d="M382,64.11c0-1.33.06-2.64.16-3.93a49,49,0,0,1,.77-5.44c0-.2,0-.41,0-.61,0-26.16,18.54-47.73,42.5-50.85a46.41,46.41,0,0,1,6-.4c26.78,0,48.5,23,48.5,51.25,0,.19,0,.38,0,.57a49.59,49.59,0,0,1,.92,8.5c0,.31,0,.61,0,.92,0,0,.16,2,.07,5.53-.06,2.29-.19,4.56-.43,6.83-.06.61-.12,1.21-.22,1.81q-.44,3.66-1.18,7.25a87.41,87.41,0,0,1-3.49,12.34,90.45,90.45,0,0,1-10.36,20.26l-.2.31c-.73,1.05-1.47,2.1-2.26,3.12a89.73,89.73,0,0,1-9.21,10.51l-.27.25c-13.52,15-29.33,15.65-43.74,0a3.22,3.22,0,0,0-.26-.25,91.39,91.39,0,0,1-13-16,90.19,90.19,0,0,1-6.19-11.29,88.85,88.85,0,0,1-5.32-14.89,85.67,85.67,0,0,1-2.62-15.86c-.12-1.46-.19-2.94-.23-4.41,0-.53,0-1,0-1.51C381.88,65.57,382,64.11,382,64.11Z"/><path class="cls-2" d="M428,93.46a1,1,0,0,0,0-.13S428,93.4,428,93.46Z"/><path class="cls-2" d="M428,93.46a1,1,0,0,0,0-.13S428,93.4,428,93.46Z"/><path d="M377.38,148.77c5.54,2.22,13.22,4,28.93,4V129c-.55-.6-1.11-1.21-1.64-1.81s-1.07-1.23-1.59-1.84-.95-1.14-1.41-1.73c-.1-.11-.18-.22-.27-.33a10.49,10.49,0,0,1-1-1.31c-5.18-9.42-6.85-12.45-9.1-26.53C389.19,82.23,390.6,70,402.58,65.1c16.59-6.85,28.52-22.53,33.8-39.68,0,17.58,12.39,32.68,24.39,40.07,11.77,7.25,9.66,21.16,8.73,30-1.48,14-8.46,26.48-13,33.55v60.55l1,.22c35,7.74,64.79-26,52.81-59.75L478.76,38.1c-4.34-16.94-16.84-30.43-32.63-35.68a45.07,45.07,0,0,0-8.7-2,46.57,46.57,0,0,0-6-.41c-19.75,0-37.23,13-44.58,31-.66,1.63-1.33,3.21-2,4.79l-21.86,65.87C357.56,115.84,355.37,140,377.38,148.77Z"/><path d="M507.6,188.83s-3.25-14.48-.25-21.24l1.6-3.6-37.41,16.19Z"/><path class="cls-4" d="M518.69,300a.26.26,0,0,1,0-.08H344.12s0,.05,0,.08H293.81l0-.14L314.27,232l4.21-14c4-16.83,20.54-29.34,37.88-32.31L396.85,176a12.35,12.35,0,0,0,9.46-12V152.78h50.2V164A12.35,12.35,0,0,0,466,176l40.5,9.71c17.33,3,33.88,15.48,37.88,32.31L569,300Z"/><polygon class="cls-1" points="517.73 299.92 478.64 299.92 353.77 174.53 392.83 174.53 517.73 299.92"/><path d="M450.52,63.85A16.2,16.2,0,0,0,438,69.8l-.91,1.11a8.63,8.63,0,0,0-1.95,5.46h0a1.89,1.89,0,0,1-1.89,1.89h-5.4A1.89,1.89,0,0,1,426,76.37h0A8.63,8.63,0,0,0,424,70.91l-.9-1.1a16.2,16.2,0,0,0-12.55-6H390.72a.12.12,0,0,0-.12.12V81.53A17.68,17.68,0,0,0,408.28,99.2h0A17.66,17.66,0,0,0,425.39,85.9a6.18,6.18,0,0,1,2-3.28h0a4.91,4.91,0,0,1,6.23,0h0a6.2,6.2,0,0,1,2,3.29A17.67,17.67,0,0,0,452.27,99.2c10.06.3,18.21-8.16,18.21-18.22V64a.12.12,0,0,0-.12-.12Z"/><path class="cls-3" d="M436.6,114.13a4.39,4.39,0,0,0-5.18.44,4.39,4.39,0,0,0-5.18-.44L418.35,119l1.46,1.26a17.76,17.76,0,0,0,11.6,4.32h0a17.76,17.76,0,0,0,11.6-4.32l1.46-1.26Z"/><polygon class="cls-5" points="851.93 197.26 779.6 197.26 779.61 161.63 779.6 101.24 851.93 101.24 851.93 197.26"/><path d="M633.46,299.8l17.31-61.28c6.68-23.91,24.91-42.17,47.74-47.79l54.25-13.39c15.77-3.89,26.94-2.73,26.9-20v-2.08h9.6a10.38,10.38,0,0,1,3.59.64,11,11,0,0,1,3.7,2.25L815,175.11l20.18-17.21a11.11,11.11,0,0,1,3.39-2,10.58,10.58,0,0,1,3.59-.64H852v2.08c0,17.25,11.12,16.08,26.9,20l54.25,13.39c22.83,5.63,41.06,23.88,47.74,47.79l17.21,61.28Z"/><path class="cls-5" d="M860.32,68.39l-1.79,36.92c6.16-1.36,12-8.55,13.73-14.62l3.69-13.1a11.06,11.06,0,0,0-3.47-10.75h0a8.56,8.56,0,0,0-12.15,1.55Z"/><path class="cls-5" d="M771.13,68.39l1.79,36.92c-6.16-1.36-12-8.55-13.73-14.62l-3.69-13.1A11.06,11.06,0,0,1,759,66.84h0a8.56,8.56,0,0,1,12.15,1.55Z"/><path class="cls-5" d="M869.1,65.58,867.48,74c-.29,1.52-.74,3.37-1.3,5.45-4.93,18.28-18.84,54.76-18.84,54.76a34.28,34.28,0,0,1-63.24,0s-13.91-36.49-18.84-54.76c-.56-2.08-1-3.92-1.3-5.45l-1.62-8.39C755.94,32.51,780.42,1,814.09,0l1.63,0,1.63,0C851,1,875.5,32.51,869.1,65.58Z"/><path class="cls-6" d="M870.1,53.38C869.26,25.18,847.4.94,818.69.09l-1.58,0-1.38,0-1.37,0-1.59,0C784,.94,762.19,25.18,761.34,53.38a56.47,56.47,0,0,0,2,16.27l3.77,14.09h6.42l-1.76-4a39.22,39.22,0,0,1-.63-29.91,44.34,44.34,0,0,0,2.64-11.28l.42-3.78a14.76,14.76,0,0,1,23.17-8.07,30.33,30.33,0,0,0,36.59,0,14.57,14.57,0,0,1,8.85-3,14.76,14.76,0,0,1,14.33,11.05l.41,3.78a44.74,44.74,0,0,0,2.65,11.28,39.26,39.26,0,0,1-.63,29.91l-1.76,4h6.42l3.77-14.09A56.79,56.79,0,0,0,870.1,53.38Z"/><path class="cls-6" d="M864.28,83.74l-11.66,43.65a38.35,38.35,0,0,1-73.79,0L767.16,83.74h6.41l8.65,19.79c2.89,8.07,13.53,7.49,18.94,4.56l5-2.72a20,20,0,0,1,19.05,0l5,2.72c5.41,2.93,16.05,3.51,18.94-4.56l8.65-19.79Z"/><path class="cls-4" d="M853.06,56.69,848,56h0l-.42-.09-3.45-.56a36.39,36.39,0,0,0-9.38-.31,14.71,14.71,0,0,0-11.82,8.31,3.15,3.15,0,0,1-3.64,1.68,13.37,13.37,0,0,0-7.12,0,3.15,3.15,0,0,1-3.64-1.68,14.71,14.71,0,0,0-11.82-8.31,36.39,36.39,0,0,0-9.38.31l-3.45.56-.42.09h0l-5.08.68a6.92,6.92,0,0,0-6.06,7.64,5,5,0,0,0,.42,1.47h0a61.24,61.24,0,0,1,2.79,6.77,22.25,22.25,0,0,0,1.54,3.53A20.2,20.2,0,0,0,781.87,82a18,18,0,0,0,14.54,4.3,16.09,16.09,0,0,0,13.39-12.75,17.46,17.46,0,0,0,.25-2.18,3.22,3.22,0,0,1,2.43-3,13.53,13.53,0,0,1,6.45,0,3.22,3.22,0,0,1,2.43,3,17.46,17.46,0,0,0,.25,2.18A16.09,16.09,0,0,0,835,86.29,18,18,0,0,0,849.56,82a20.2,20.2,0,0,0,4.81-5.88,22.25,22.25,0,0,0,1.54-3.53,61.24,61.24,0,0,1,2.79-6.77h0a5,5,0,0,0,.42-1.47A6.92,6.92,0,0,0,853.06,56.69ZM807.32,73v0a13.35,13.35,0,0,1-11.11,10.58,15,15,0,0,1-12.06-3.57,16.76,16.76,0,0,1-4-4.88,19,19,0,0,1-2-6,9.33,9.33,0,0,1-.12-1.94h0a9.35,9.35,0,0,1,7.81-8.79l2.86-.46a30.23,30.23,0,0,1,7.79-.26,12.12,12.12,0,0,1,8.62,4.92,9.47,9.47,0,0,1,1.57,3.61c.22,1,.47,2.43.66,3.52A9.38,9.38,0,0,1,807.32,73Zm46.13-5.79a9.33,9.33,0,0,1-.12,1.94,19,19,0,0,1-2,6,16.76,16.76,0,0,1-4,4.88,15,15,0,0,1-12.06,3.57,13.35,13.35,0,0,1-11.11-10.58v0a9.38,9.38,0,0,1,0-3.27c.18-1.09.44-2.54.66-3.52a9.47,9.47,0,0,1,1.57-3.61A12.12,12.12,0,0,1,835,57.72a30.23,30.23,0,0,1,7.79.26l2.86.46a9.35,9.35,0,0,1,7.81,8.79Z"/><polygon class="cls-1" points="925.46 177.73 810.48 293.41 809.84 294.05 810.03 294.09 770.96 294.09 770.78 294.05 771.33 293.49 771.41 293.41 886.41 177.73 925.46 177.73"/><path class="cls-4" d="M946.61,298c-.62-1.72-1.25-3.43-1.93-5.12A139,139,0,0,0,684.82,298c-.23.67-.47,1.34-.69,2h25.53c.29-.67.58-1.34.88-2a115,115,0,0,1,206.75-7.49c1.31,2.44,2.53,4.94,3.64,7.49.3.67.59,1.34.87,2h25.5Z"/><path class="cls-5" d="M732.17,287.14c-6.18,2.19-12.75,3.39-18.82,6.09-.18.08-4,4.65-6.46,5.67a28.23,28.23,0,0,1-2.77.89H667.38l.06-1.17a7.78,7.78,0,0,0,0-1.46l-.5-4.7a7.81,7.81,0,0,1,0-1.9,7.94,7.94,0,0,1,3.47-5.75l.06,0,0,0,1.84-1.27a17.41,17.41,0,0,0,5.65-6.56l1.79-3.66h0a8,8,0,0,1,4.77-4.56h0l.15,0,.57-.16,2.44-.7A14.05,14.05,0,0,0,694,264l1.48-1.56a8,8,0,0,1,6.71-2.52,7.8,7.8,0,0,1,1.92.46h0l0,0a7.9,7.9,0,0,1,1.74.91l8.33,4.33a18,18,0,0,1,6,5.14Z"/><path class="cls-5" d="M971.15,299.36l-.11.44H917.38l-.65-.22c-2.5-.87-7.79-5.89-10.32-6.68l11.53-15.27a18,18,0,0,1,6-5.14l8.33-4.33a8,8,0,0,1,1.75-.91l0,0h0a7.9,7.9,0,0,1,8.63,2.06l1.48,1.56a14.05,14.05,0,0,0,6.3,3.82l2.44.7.57.16.15,0h0a8,8,0,0,1,4.76,4.56h0l1.8,3.66a17.25,17.25,0,0,0,5.65,6.56l1.83,1.27,0,0,.06,0a7.94,7.94,0,0,1,3.46,5.75A7.81,7.81,0,0,1,971.15,299.36Z"/><path class="cls-4" d="M995.7,300l-361.54-.07,22.43-.67q5.79-.18,11.56-.65a222,222,0,0,0,23-3.08q4.7-.87,9.38-2a228.77,228.77,0,0,0,27.71-8.28l.15-.06q4.6-1.7,9.14-3.6,2.72-1.13,5.42-2.34l.42-.18q8.12-3.62,16.42-6.42l.84-.28,1.28-.43c.87-.29,1.75-.57,2.62-.83q4-1.26,8.11-2.32a184.41,184.41,0,0,1,89.66-1A188.29,188.29,0,0,1,881,273.28q3.91,1.36,7.79,2.92c.92.36,1.84.73,2.75,1.12l9.68,4q6.29,2.61,12.68,4.86,4.63,1.62,9.3,3,8.33,2.53,16.79,4.41,3.81.85,7.64,1.56,8.76,1.64,17.6,2.57c2.92.31,5.85.56,8.78.76l.83,0Z"/><path class="cls-5" d="M822.17,114.09a9.23,9.23,0,0,0-3.32-.43c-2.09.1-4.17.1-6.26,0a9.23,9.23,0,0,0-3.32.43l-9.81,3.33,1.82.87a34.28,34.28,0,0,0,14.44,3h0a34.28,34.28,0,0,0,14.44-3l1.82-.87Z"/></svg>