<!DOCTYPE svg PUBLIC "-//W3C//DTD SVG 1.1//EN" "http://www.w3.org/Graphics/SVG/1.1/DTD/svg11.dtd">
<!-- Uploaded to: SVG Repo, www.svgrepo.com, Transformed by: SVG Repo Mixer Tools -->
<svg width="800px" height="800px" viewBox="0 0 24 24" fill="none" xmlns="http://www.w3.org/2000/svg" stroke="#fff">
<g id="SVGRepo_bgCarrier" stroke-width="0"/>
<g id="SVGRepo_tracerCarrier" stroke-linecap="round" stroke-linejoin="round"/>
<g id="SVGRepo_iconCarrier"> <path d="M22 6C22.5523 6 23 6.44772 23 7C23 7.55229 22.5523 8 22 8H2C1.44772 8 1 7.55228 1 7C1 6.44772 1.44772 6 2 6L22 6Z" fill="#fff"/> <path d="M22 11C22.5523 11 23 11.4477 23 12C23 12.5523 22.5523 13 22 13H2C1.44772 13 1 12.5523 1 12C1 11.4477 1.44772 11 2 11H22Z" fill="#fff"/> <path d="M23 17C23 16.4477 22.5523 16 22 16H2C1.44772 16 1 16.4477 1 17C1 17.5523 1.44772 18 2 18H22C22.5523 18 23 17.5523 23 17Z" fill="#fff"/> </g>
</svg>