<!DOCTYPE svg PUBLIC "-//W3C//DTD SVG 1.1//EN" "http://www.w3.org/Graphics/SVG/1.1/DTD/svg11.dtd">
<!-- Uploaded to: SVG Repo, www.svgrepo.com, Transformed by: SVG Repo Mixer Tools -->
<svg fill="#fff" width="800px" height="800px" viewBox="0 -2 28 28" xmlns="http://www.w3.org/2000/svg" stroke="#fff">
<g id="SVGRepo_bgCarrier" stroke-width="0"/>
<g id="SVGRepo_tracerCarrier" stroke-linecap="round" stroke-linejoin="round"/>
<g id="SVGRepo_iconCarrier">
<path d="m0 24.001v-3.165h27.693v3.165zm0-7.912v-3.165h27.693v3.165zm0-7.055v-8.573c.02-.261.238-.466.503-.466.089 0 .173.023.245.064l-.003-.001 8.483 4.273c.158.076.265.235.265.419s-.107.343-.262.417l-.003.001-8.483 4.269c-.07.037-.154.058-.242.059-.006 0-.013 0-.02 0-.259 0-.471-.204-.483-.461v-.001zm12.659-2.44v-3.165h15.033v3.165z"/>
</g>
</svg>