<svg width="20" height="20" viewBox="0 0 20 20" fill="none" xmlns="http://www.w3.org/2000/svg">
<g id="Search">
<path id="Vector" d="M14.4025 15.1099L14.0931 14.8006L13.7454 15.0662C12.5678 15.9658 11.0969 16.5 9.5 16.5C5.634 16.5 2.5 13.366 2.5 9.5C2.5 5.634 5.634 2.5 9.5 2.5C13.366 2.5 16.5 5.634 16.5 9.5C16.5 11.0971 15.9657 12.5681 15.0659 13.7457L14.8002 14.0934L15.1096 14.4028L17.8531 17.1464L17.8531 17.1465C18.0484 17.3417 18.0484 17.6583 17.8531 17.8535C17.6579 18.0488 17.3413 18.0488 17.1461 17.8535L14.4025 15.1099ZM9.5 3.5C6.18629 3.5 3.5 6.18629 3.5 9.5C3.5 12.8137 6.18629 15.5 9.5 15.5C12.8137 15.5 15.5 12.8137 15.5 9.5C15.5 6.18629 12.8137 3.5 9.5 3.5Z" fill="#FCFCFC" stroke="#FCFCFC"/>
</g>
</svg>
