<!DOCTYPE svg PUBLIC "-//W3C//DTD SVG 1.1//EN" "http://www.w3.org/Graphics/SVG/1.1/DTD/svg11.dtd">

<!-- Uploaded to: SVG Repo, www.svgrepo.com, Transformed by: SVG Repo Mixer Tools -->
<svg width="800px" height="800px" viewBox="0 0 48 48" xmlns="http://www.w3.org/2000/svg" fill="#fff" stroke="transparent">

<g id="SVGRepo_bgCarrier" stroke-width="0"/>

<g id="SVGRepo_tracerCarrier" stroke-linecap="round" stroke-linejoin="round"/>

<g id="SVGRepo_iconCarrier"> <title>volume-off</title> <g id="Layer_2" data-name="Layer 2"> <g id="invisible_box" data-name="invisible box"> <rect width="48" height="48" fill="none"/> </g> <g id="icons_Q2" data-name="icons Q2"> <g> <path d="M26,11.8v6.4l4,4V5a1,1,0,0,0-1-1,1.1,1.1,0,0,0-.7.3l-8.4,7.8,2.8,2.8Z"/> <path d="M40.4,38.6l-32-32A2,2,0,0,0,5.6,9.4L11.2,15H8a2,2,0,0,0-2,2V31a2,2,0,0,0,2,2h8.7L28.3,43.7a1.1,1.1,0,0,0,.7.3,1,1,0,0,0,1-1V33.8l7.6,7.6a1.9,1.9,0,0,0,2.8,0A1.9,1.9,0,0,0,40.4,38.6ZM26,36.1l-6.6-6L18.2,29H10V19h5.2L26,29.8Z"/> </g> </g> </g> </g>

</svg>
